<?xml version="1.0" encoding="utf-8" standalone="no"?>
<!DOCTYPE svg PUBLIC "-//W3C//DTD SVG 1.1//EN"
  "http://www.w3.org/Graphics/SVG/1.1/DTD/svg11.dtd">
<!-- Created with matplotlib (https://matplotlib.org/) -->
<svg height="240.48pt" version="1.1" viewBox="0 0 409.68 240.48" width="409.68pt" xmlns="http://www.w3.org/2000/svg" xmlns:xlink="http://www.w3.org/1999/xlink">
 <defs>
  <style type="text/css">
*{stroke-linecap:butt;stroke-linejoin:round;}
  </style>
 </defs>
 <g id="figure_1">
  <g id="patch_1">
   <path d="M 0 240.48 
L 409.68 240.48 
L 409.68 0 
L 0 0 
z
" style="fill:#ffffff;"/>
  </g>
  <g id="axes_1">
   <g id="patch_2">
    <path d="M 49.75 212.6 
L 398.88 212.6 
L 398.88 10.8 
L 49.75 10.8 
z
" style="fill:#ffffff;"/>
   </g>
   <g id="matplotlib.axis_1">
    <g id="xtick_1">
     <g id="line2d_1">
      <path clip-path="url(#p9aed1b9e06)" d="M 49.75 212.6 
L 49.75 10.8 
" style="fill:none;stroke:#808080;stroke-linecap:square;stroke-width:0.8;"/>
     </g>
     <g id="line2d_2">
      <defs>
       <path d="M 0 0 
L 0 3.5 
" id="m9f85fca752" style="stroke:#000000;stroke-width:0.8;"/>
      </defs>
      <g>
       <use style="stroke:#000000;stroke-width:0.8;" x="49.75" xlink:href="#m9f85fca752" y="212.6"/>
      </g>
     </g>
     <g id="text_1">
      <!-- 105.0 -->
      <defs>
       <path d="M 12.40625 8.296875 
L 28.515625 8.296875 
L 28.515625 63.921875 
L 10.984375 60.40625 
L 10.984375 69.390625 
L 28.421875 72.90625 
L 38.28125 72.90625 
L 38.28125 8.296875 
L 54.390625 8.296875 
L 54.390625 0 
L 12.40625 0 
z
" id="DejaVuSans-49"/>
       <path d="M 31.78125 66.40625 
Q 24.171875 66.40625 20.328125 58.90625 
Q 16.5 51.421875 16.5 36.375 
Q 16.5 21.390625 20.328125 13.890625 
Q 24.171875 6.390625 31.78125 6.390625 
Q 39.453125 6.390625 43.28125 13.890625 
Q 47.125 21.390625 47.125 36.375 
Q 47.125 51.421875 43.28125 58.90625 
Q 39.453125 66.40625 31.78125 66.40625 
z
M 31.78125 74.21875 
Q 44.046875 74.21875 50.515625 64.515625 
Q 56.984375 54.828125 56.984375 36.375 
Q 56.984375 17.96875 50.515625 8.265625 
Q 44.046875 -1.421875 31.78125 -1.421875 
Q 19.53125 -1.421875 13.0625 8.265625 
Q 6.59375 17.96875 6.59375 36.375 
Q 6.59375 54.828125 13.0625 64.515625 
Q 19.53125 74.21875 31.78125 74.21875 
z
" id="DejaVuSans-48"/>
       <path d="M 10.796875 72.90625 
L 49.515625 72.90625 
L 49.515625 64.59375 
L 19.828125 64.59375 
L 19.828125 46.734375 
Q 21.96875 47.46875 24.109375 47.828125 
Q 26.265625 48.1875 28.421875 48.1875 
Q 40.625 48.1875 47.75 41.5 
Q 54.890625 34.8125 54.890625 23.390625 
Q 54.890625 11.625 47.5625 5.09375 
Q 40.234375 -1.421875 26.90625 -1.421875 
Q 22.3125 -1.421875 17.546875 -0.640625 
Q 12.796875 0.140625 7.71875 1.703125 
L 7.71875 11.625 
Q 12.109375 9.234375 16.796875 8.0625 
Q 21.484375 6.890625 26.703125 6.890625 
Q 35.15625 6.890625 40.078125 11.328125 
Q 45.015625 15.765625 45.015625 23.390625 
Q 45.015625 31 40.078125 35.4375 
Q 35.15625 39.890625 26.703125 39.890625 
Q 22.75 39.890625 18.8125 39.015625 
Q 14.890625 38.140625 10.796875 36.28125 
z
" id="DejaVuSans-53"/>
       <path d="M 10.6875 12.40625 
L 21 12.40625 
L 21 0 
L 10.6875 0 
z
" id="DejaVuSans-46"/>
      </defs>
      <g transform="translate(35.435938 227.198437)scale(0.1 -0.1)">
       <use xlink:href="#DejaVuSans-49"/>
       <use x="63.623047" xlink:href="#DejaVuSans-48"/>
       <use x="127.246094" xlink:href="#DejaVuSans-53"/>
       <use x="190.869141" xlink:href="#DejaVuSans-46"/>
       <use x="222.65625" xlink:href="#DejaVuSans-48"/>
      </g>
     </g>
    </g>
    <g id="xtick_2">
     <g id="line2d_3">
      <path clip-path="url(#p9aed1b9e06)" d="M 107.938333 212.6 
L 107.938333 10.8 
" style="fill:none;stroke:#808080;stroke-linecap:square;stroke-width:0.8;"/>
     </g>
     <g id="line2d_4">
      <g>
       <use style="stroke:#000000;stroke-width:0.8;" x="107.938333" xlink:href="#m9f85fca752" y="212.6"/>
      </g>
     </g>
     <g id="text_2">
      <!-- 105.5 -->
      <g transform="translate(93.624271 227.198437)scale(0.1 -0.1)">
       <use xlink:href="#DejaVuSans-49"/>
       <use x="63.623047" xlink:href="#DejaVuSans-48"/>
       <use x="127.246094" xlink:href="#DejaVuSans-53"/>
       <use x="190.869141" xlink:href="#DejaVuSans-46"/>
       <use x="222.65625" xlink:href="#DejaVuSans-53"/>
      </g>
     </g>
    </g>
    <g id="xtick_3">
     <g id="line2d_5">
      <path clip-path="url(#p9aed1b9e06)" d="M 166.126667 212.6 
L 166.126667 10.8 
" style="fill:none;stroke:#808080;stroke-linecap:square;stroke-width:0.8;"/>
     </g>
     <g id="line2d_6">
      <g>
       <use style="stroke:#000000;stroke-width:0.8;" x="166.126667" xlink:href="#m9f85fca752" y="212.6"/>
      </g>
     </g>
     <g id="text_3">
      <!-- 106.0 -->
      <defs>
       <path d="M 33.015625 40.375 
Q 26.375 40.375 22.484375 35.828125 
Q 18.609375 31.296875 18.609375 23.390625 
Q 18.609375 15.53125 22.484375 10.953125 
Q 26.375 6.390625 33.015625 6.390625 
Q 39.65625 6.390625 43.53125 10.953125 
Q 47.40625 15.53125 47.40625 23.390625 
Q 47.40625 31.296875 43.53125 35.828125 
Q 39.65625 40.375 33.015625 40.375 
z
M 52.59375 71.296875 
L 52.59375 62.3125 
Q 48.875 64.0625 45.09375 64.984375 
Q 41.3125 65.921875 37.59375 65.921875 
Q 27.828125 65.921875 22.671875 59.328125 
Q 17.53125 52.734375 16.796875 39.40625 
Q 19.671875 43.65625 24.015625 45.921875 
Q 28.375 48.1875 33.59375 48.1875 
Q 44.578125 48.1875 50.953125 41.515625 
Q 57.328125 34.859375 57.328125 23.390625 
Q 57.328125 12.15625 50.6875 5.359375 
Q 44.046875 -1.421875 33.015625 -1.421875 
Q 20.359375 -1.421875 13.671875 8.265625 
Q 6.984375 17.96875 6.984375 36.375 
Q 6.984375 53.65625 15.1875 63.9375 
Q 23.390625 74.21875 37.203125 74.21875 
Q 40.921875 74.21875 44.703125 73.484375 
Q 48.484375 72.75 52.59375 71.296875 
z
" id="DejaVuSans-54"/>
      </defs>
      <g transform="translate(151.812604 227.198437)scale(0.1 -0.1)">
       <use xlink:href="#DejaVuSans-49"/>
       <use x="63.623047" xlink:href="#DejaVuSans-48"/>
       <use x="127.246094" xlink:href="#DejaVuSans-54"/>
       <use x="190.869141" xlink:href="#DejaVuSans-46"/>
       <use x="222.65625" xlink:href="#DejaVuSans-48"/>
      </g>
     </g>
    </g>
    <g id="xtick_4">
     <g id="line2d_7">
      <path clip-path="url(#p9aed1b9e06)" d="M 224.315 212.6 
L 224.315 10.8 
" style="fill:none;stroke:#808080;stroke-linecap:square;stroke-width:0.8;"/>
     </g>
     <g id="line2d_8">
      <g>
       <use style="stroke:#000000;stroke-width:0.8;" x="224.315" xlink:href="#m9f85fca752" y="212.6"/>
      </g>
     </g>
     <g id="text_4">
      <!-- 106.5 -->
      <g transform="translate(210.000938 227.198437)scale(0.1 -0.1)">
       <use xlink:href="#DejaVuSans-49"/>
       <use x="63.623047" xlink:href="#DejaVuSans-48"/>
       <use x="127.246094" xlink:href="#DejaVuSans-54"/>
       <use x="190.869141" xlink:href="#DejaVuSans-46"/>
       <use x="222.65625" xlink:href="#DejaVuSans-53"/>
      </g>
     </g>
    </g>
    <g id="xtick_5">
     <g id="line2d_9">
      <path clip-path="url(#p9aed1b9e06)" d="M 282.503333 212.6 
L 282.503333 10.8 
" style="fill:none;stroke:#808080;stroke-linecap:square;stroke-width:0.8;"/>
     </g>
     <g id="line2d_10">
      <g>
       <use style="stroke:#000000;stroke-width:0.8;" x="282.503333" xlink:href="#m9f85fca752" y="212.6"/>
      </g>
     </g>
     <g id="text_5">
      <!-- 107.0 -->
      <defs>
       <path d="M 8.203125 72.90625 
L 55.078125 72.90625 
L 55.078125 68.703125 
L 28.609375 0 
L 18.3125 0 
L 43.21875 64.59375 
L 8.203125 64.59375 
z
" id="DejaVuSans-55"/>
      </defs>
      <g transform="translate(268.189271 227.198437)scale(0.1 -0.1)">
       <use xlink:href="#DejaVuSans-49"/>
       <use x="63.623047" xlink:href="#DejaVuSans-48"/>
       <use x="127.246094" xlink:href="#DejaVuSans-55"/>
       <use x="190.869141" xlink:href="#DejaVuSans-46"/>
       <use x="222.65625" xlink:href="#DejaVuSans-48"/>
      </g>
     </g>
    </g>
    <g id="xtick_6">
     <g id="line2d_11">
      <path clip-path="url(#p9aed1b9e06)" d="M 340.691667 212.6 
L 340.691667 10.8 
" style="fill:none;stroke:#808080;stroke-linecap:square;stroke-width:0.8;"/>
     </g>
     <g id="line2d_12">
      <g>
       <use style="stroke:#000000;stroke-width:0.8;" x="340.691667" xlink:href="#m9f85fca752" y="212.6"/>
      </g>
     </g>
     <g id="text_6">
      <!-- 107.5 -->
      <g transform="translate(326.377604 227.198437)scale(0.1 -0.1)">
       <use xlink:href="#DejaVuSans-49"/>
       <use x="63.623047" xlink:href="#DejaVuSans-48"/>
       <use x="127.246094" xlink:href="#DejaVuSans-55"/>
       <use x="190.869141" xlink:href="#DejaVuSans-46"/>
       <use x="222.65625" xlink:href="#DejaVuSans-53"/>
      </g>
     </g>
    </g>
    <g id="xtick_7">
     <g id="line2d_13">
      <path clip-path="url(#p9aed1b9e06)" d="M 398.88 212.6 
L 398.88 10.8 
" style="fill:none;stroke:#808080;stroke-linecap:square;stroke-width:0.8;"/>
     </g>
     <g id="line2d_14">
      <g>
       <use style="stroke:#000000;stroke-width:0.8;" x="398.88" xlink:href="#m9f85fca752" y="212.6"/>
      </g>
     </g>
     <g id="text_7">
      <!-- 108.0 -->
      <defs>
       <path d="M 31.78125 34.625 
Q 24.75 34.625 20.71875 30.859375 
Q 16.703125 27.09375 16.703125 20.515625 
Q 16.703125 13.921875 20.71875 10.15625 
Q 24.75 6.390625 31.78125 6.390625 
Q 38.8125 6.390625 42.859375 10.171875 
Q 46.921875 13.96875 46.921875 20.515625 
Q 46.921875 27.09375 42.890625 30.859375 
Q 38.875 34.625 31.78125 34.625 
z
M 21.921875 38.8125 
Q 15.578125 40.375 12.03125 44.71875 
Q 8.5 49.078125 8.5 55.328125 
Q 8.5 64.0625 14.71875 69.140625 
Q 20.953125 74.21875 31.78125 74.21875 
Q 42.671875 74.21875 48.875 69.140625 
Q 55.078125 64.0625 55.078125 55.328125 
Q 55.078125 49.078125 51.53125 44.71875 
Q 48 40.375 41.703125 38.8125 
Q 48.828125 37.15625 52.796875 32.3125 
Q 56.78125 27.484375 56.78125 20.515625 
Q 56.78125 9.90625 50.3125 4.234375 
Q 43.84375 -1.421875 31.78125 -1.421875 
Q 19.734375 -1.421875 13.25 4.234375 
Q 6.78125 9.90625 6.78125 20.515625 
Q 6.78125 27.484375 10.78125 32.3125 
Q 14.796875 37.15625 21.921875 38.8125 
z
M 18.3125 54.390625 
Q 18.3125 48.734375 21.84375 45.5625 
Q 25.390625 42.390625 31.78125 42.390625 
Q 38.140625 42.390625 41.71875 45.5625 
Q 45.3125 48.734375 45.3125 54.390625 
Q 45.3125 60.0625 41.71875 63.234375 
Q 38.140625 66.40625 31.78125 66.40625 
Q 25.390625 66.40625 21.84375 63.234375 
Q 18.3125 60.0625 18.3125 54.390625 
z
" id="DejaVuSans-56"/>
      </defs>
      <g transform="translate(384.565938 227.198437)scale(0.1 -0.1)">
       <use xlink:href="#DejaVuSans-49"/>
       <use x="63.623047" xlink:href="#DejaVuSans-48"/>
       <use x="127.246094" xlink:href="#DejaVuSans-56"/>
       <use x="190.869141" xlink:href="#DejaVuSans-46"/>
       <use x="222.65625" xlink:href="#DejaVuSans-48"/>
      </g>
     </g>
    </g>
   </g>
   <g id="matplotlib.axis_2">
    <g id="ytick_1">
     <g id="line2d_15">
      <path clip-path="url(#p9aed1b9e06)" d="M 49.75 196.817965 
L 398.88 196.817965 
" style="fill:none;stroke:#808080;stroke-linecap:square;stroke-width:0.8;"/>
     </g>
     <g id="line2d_16">
      <defs>
       <path d="M 0 0 
L -3.5 0 
" id="m543f0f2fc6" style="stroke:#000000;stroke-width:0.8;"/>
      </defs>
      <g>
       <use style="stroke:#000000;stroke-width:0.8;" x="49.75" xlink:href="#m543f0f2fc6" y="196.817965"/>
      </g>
     </g>
     <g id="text_8">
      <!-- 0 -->
      <g transform="translate(36.3875 200.617184)scale(0.1 -0.1)">
       <use xlink:href="#DejaVuSans-48"/>
      </g>
     </g>
    </g>
    <g id="ytick_2">
     <g id="line2d_17">
      <path clip-path="url(#p9aed1b9e06)" d="M 49.75 168.43301 
L 398.88 168.43301 
" style="fill:none;stroke:#808080;stroke-linecap:square;stroke-width:0.8;"/>
     </g>
     <g id="line2d_18">
      <g>
       <use style="stroke:#000000;stroke-width:0.8;" x="49.75" xlink:href="#m543f0f2fc6" y="168.43301"/>
      </g>
     </g>
     <g id="text_9">
      <!-- 5000 -->
      <g transform="translate(17.3 172.232229)scale(0.1 -0.1)">
       <use xlink:href="#DejaVuSans-53"/>
       <use x="63.623047" xlink:href="#DejaVuSans-48"/>
       <use x="127.246094" xlink:href="#DejaVuSans-48"/>
       <use x="190.869141" xlink:href="#DejaVuSans-48"/>
      </g>
     </g>
    </g>
    <g id="ytick_3">
     <g id="line2d_19">
      <path clip-path="url(#p9aed1b9e06)" d="M 49.75 140.048055 
L 398.88 140.048055 
" style="fill:none;stroke:#808080;stroke-linecap:square;stroke-width:0.8;"/>
     </g>
     <g id="line2d_20">
      <g>
       <use style="stroke:#000000;stroke-width:0.8;" x="49.75" xlink:href="#m543f0f2fc6" y="140.048055"/>
      </g>
     </g>
     <g id="text_10">
      <!-- 10000 -->
      <g transform="translate(10.9375 143.847273)scale(0.1 -0.1)">
       <use xlink:href="#DejaVuSans-49"/>
       <use x="63.623047" xlink:href="#DejaVuSans-48"/>
       <use x="127.246094" xlink:href="#DejaVuSans-48"/>
       <use x="190.869141" xlink:href="#DejaVuSans-48"/>
       <use x="254.492188" xlink:href="#DejaVuSans-48"/>
      </g>
     </g>
    </g>
    <g id="ytick_4">
     <g id="line2d_21">
      <path clip-path="url(#p9aed1b9e06)" d="M 49.75 111.6631 
L 398.88 111.6631 
" style="fill:none;stroke:#808080;stroke-linecap:square;stroke-width:0.8;"/>
     </g>
     <g id="line2d_22">
      <g>
       <use style="stroke:#000000;stroke-width:0.8;" x="49.75" xlink:href="#m543f0f2fc6" y="111.6631"/>
      </g>
     </g>
     <g id="text_11">
      <!-- 15000 -->
      <g transform="translate(10.9375 115.462318)scale(0.1 -0.1)">
       <use xlink:href="#DejaVuSans-49"/>
       <use x="63.623047" xlink:href="#DejaVuSans-53"/>
       <use x="127.246094" xlink:href="#DejaVuSans-48"/>
       <use x="190.869141" xlink:href="#DejaVuSans-48"/>
       <use x="254.492188" xlink:href="#DejaVuSans-48"/>
      </g>
     </g>
    </g>
    <g id="ytick_5">
     <g id="line2d_23">
      <path clip-path="url(#p9aed1b9e06)" d="M 49.75 83.278144 
L 398.88 83.278144 
" style="fill:none;stroke:#808080;stroke-linecap:square;stroke-width:0.8;"/>
     </g>
     <g id="line2d_24">
      <g>
       <use style="stroke:#000000;stroke-width:0.8;" x="49.75" xlink:href="#m543f0f2fc6" y="83.278144"/>
      </g>
     </g>
     <g id="text_12">
      <!-- 20000 -->
      <defs>
       <path d="M 19.1875 8.296875 
L 53.609375 8.296875 
L 53.609375 0 
L 7.328125 0 
L 7.328125 8.296875 
Q 12.9375 14.109375 22.625 23.890625 
Q 32.328125 33.6875 34.8125 36.53125 
Q 39.546875 41.84375 41.421875 45.53125 
Q 43.3125 49.21875 43.3125 52.78125 
Q 43.3125 58.59375 39.234375 62.25 
Q 35.15625 65.921875 28.609375 65.921875 
Q 23.96875 65.921875 18.8125 64.3125 
Q 13.671875 62.703125 7.8125 59.421875 
L 7.8125 69.390625 
Q 13.765625 71.78125 18.9375 73 
Q 24.125 74.21875 28.421875 74.21875 
Q 39.75 74.21875 46.484375 68.546875 
Q 53.21875 62.890625 53.21875 53.421875 
Q 53.21875 48.921875 51.53125 44.890625 
Q 49.859375 40.875 45.40625 35.40625 
Q 44.1875 33.984375 37.640625 27.21875 
Q 31.109375 20.453125 19.1875 8.296875 
z
" id="DejaVuSans-50"/>
      </defs>
      <g transform="translate(10.9375 87.077363)scale(0.1 -0.1)">
       <use xlink:href="#DejaVuSans-50"/>
       <use x="63.623047" xlink:href="#DejaVuSans-48"/>
       <use x="127.246094" xlink:href="#DejaVuSans-48"/>
       <use x="190.869141" xlink:href="#DejaVuSans-48"/>
       <use x="254.492188" xlink:href="#DejaVuSans-48"/>
      </g>
     </g>
    </g>
    <g id="ytick_6">
     <g id="line2d_25">
      <path clip-path="url(#p9aed1b9e06)" d="M 49.75 54.893189 
L 398.88 54.893189 
" style="fill:none;stroke:#808080;stroke-linecap:square;stroke-width:0.8;"/>
     </g>
     <g id="line2d_26">
      <g>
       <use style="stroke:#000000;stroke-width:0.8;" x="49.75" xlink:href="#m543f0f2fc6" y="54.893189"/>
      </g>
     </g>
     <g id="text_13">
      <!-- 25000 -->
      <g transform="translate(10.9375 58.692408)scale(0.1 -0.1)">
       <use xlink:href="#DejaVuSans-50"/>
       <use x="63.623047" xlink:href="#DejaVuSans-53"/>
       <use x="127.246094" xlink:href="#DejaVuSans-48"/>
       <use x="190.869141" xlink:href="#DejaVuSans-48"/>
       <use x="254.492188" xlink:href="#DejaVuSans-48"/>
      </g>
     </g>
    </g>
    <g id="ytick_7">
     <g id="line2d_27">
      <path clip-path="url(#p9aed1b9e06)" d="M 49.75 26.508234 
L 398.88 26.508234 
" style="fill:none;stroke:#808080;stroke-linecap:square;stroke-width:0.8;"/>
     </g>
     <g id="line2d_28">
      <g>
       <use style="stroke:#000000;stroke-width:0.8;" x="49.75" xlink:href="#m543f0f2fc6" y="26.508234"/>
      </g>
     </g>
     <g id="text_14">
      <!-- 30000 -->
      <defs>
       <path d="M 40.578125 39.3125 
Q 47.65625 37.796875 51.625 33 
Q 55.609375 28.21875 55.609375 21.1875 
Q 55.609375 10.40625 48.1875 4.484375 
Q 40.765625 -1.421875 27.09375 -1.421875 
Q 22.515625 -1.421875 17.65625 -0.515625 
Q 12.796875 0.390625 7.625 2.203125 
L 7.625 11.71875 
Q 11.71875 9.328125 16.59375 8.109375 
Q 21.484375 6.890625 26.8125 6.890625 
Q 36.078125 6.890625 40.9375 10.546875 
Q 45.796875 14.203125 45.796875 21.1875 
Q 45.796875 27.640625 41.28125 31.265625 
Q 36.765625 34.90625 28.71875 34.90625 
L 20.21875 34.90625 
L 20.21875 43.015625 
L 29.109375 43.015625 
Q 36.375 43.015625 40.234375 45.921875 
Q 44.09375 48.828125 44.09375 54.296875 
Q 44.09375 59.90625 40.109375 62.90625 
Q 36.140625 65.921875 28.71875 65.921875 
Q 24.65625 65.921875 20.015625 65.03125 
Q 15.375 64.15625 9.8125 62.3125 
L 9.8125 71.09375 
Q 15.4375 72.65625 20.34375 73.4375 
Q 25.25 74.21875 29.59375 74.21875 
Q 40.828125 74.21875 47.359375 69.109375 
Q 53.90625 64.015625 53.90625 55.328125 
Q 53.90625 49.265625 50.4375 45.09375 
Q 46.96875 40.921875 40.578125 39.3125 
z
" id="DejaVuSans-51"/>
      </defs>
      <g transform="translate(10.9375 30.307453)scale(0.1 -0.1)">
       <use xlink:href="#DejaVuSans-51"/>
       <use x="63.623047" xlink:href="#DejaVuSans-48"/>
       <use x="127.246094" xlink:href="#DejaVuSans-48"/>
       <use x="190.869141" xlink:href="#DejaVuSans-48"/>
       <use x="254.492188" xlink:href="#DejaVuSans-48"/>
      </g>
     </g>
    </g>
   </g>
   <g id="line2d_29">
    <path clip-path="url(#p9aed1b9e06)" d="M 49.208058 196.748762 
L 399.094618 196.748762 
L 399.094618 196.748762 
" style="fill:none;stroke:#0000ff;stroke-linecap:square;"/>
   </g>
   <g id="line2d_30">
    <path clip-path="url(#p9aed1b9e06)" d="M 49.211055 99.593817 
L 52.344701 99.639233 
L 52.363929 99.781157 
L 53.073903 100.121777 
L 53.094074 99.30429 
L 53.101261 100.615675 
L 53.108086 99.906051 
L 53.219377 98.486803 
L 53.369318 99.060179 
L 53.915145 99.30429 
L 54.366301 99.145334 
L 54.672731 99.837927 
L 55.391168 99.769803 
L 55.741299 99.565432 
L 55.744906 99.00341 
L 56.061659 98.66279 
L 56.977067 98.980702 
L 56.996101 99.809542 
L 57.70194 99.820896 
L 61.52808 99.497308 
L 61.566592 99.230489 
L 61.57708 99.690325 
L 61.583961 100.093392 
L 61.590787 99.616525 
L 61.594199 99.752772 
L 62.283031 99.77548 
L 62.380726 99.383768 
L 63.029685 99.156688 
L 63.217667 99.349706 
L 64.730176 99.866312 
L 66.646617 99.854958 
L 66.666678 99.610848 
L 66.670868 99.730064 
L 67.401485 99.661941 
L 67.443077 99.395122 
L 68.245113 98.77633 
L 68.297137 98.997733 
L 68.797987 99.667618 
L 69.14329 100.326148 
L 71.022801 100.17287 
L 71.049132 99.258874 
L 72.009323 99.491631 
L 72.016759 99.985529 
L 74.586599 99.707356 
L 74.595755 98.867162 
L 74.600028 98.918255 
L 75.553282 99.088564 
L 75.557055 99.661941 
L 75.593819 99.468923 
L 77.026086 99.485954 
L 77.771909 99.77548 
L 77.779872 99.275905 
L 78.437988 98.94664 
L 78.906429 99.281582 
L 79.197184 99.338352 
L 80.525652 98.952317 
L 80.546933 98.509511 
L 81.249554 98.713883 
L 81.302439 98.526542 
L 81.508206 98.685498 
L 81.735948 99.009087 
L 82.689646 99.281582 
L 85.318141 99.559755 
L 85.341781 99.849281 
L 86.073397 100.076361 
L 86.078031 98.742268 
L 86.089823 100.825724 
L 86.143873 99.786834 
L 86.385516 98.225662 
L 86.388208 98.49248 
L 86.864973 98.095091 
L 89.476017 97.385467 
L 89.484035 96.658812 
L 89.505095 97.130003 
L 90.017348 97.464945 
L 90.021538 97.300312 
L 90.447334 96.477149 
L 90.766805 97.226511 
L 91.540623 97.686348 
L 94.420418 97.805564 
L 94.529184 97.464945 
L 94.545415 94.212029 
L 94.55349 94.81379 
L 95.157777 95.73914 
L 95.260023 96.806414 
L 95.523197 97.20948 
L 96.223265 98.02129 
L 97.098802 97.249219 
L 98.919601 96.931308 
L 98.92368 95.336073 
L 99.601607 94.251768 
L 99.616701 93.076631 
L 99.620308 93.281003 
L 99.73884 94.308538 
L 99.926933 94.359631 
L 100.23686 94.053073 
L 103.543254 93.860056 
L 103.569308 94.325569 
L 104.326063 93.820317 
L 104.333637 93.916826 
L 104.341212 93.36048 
L 104.404058 93.604591 
L 104.5924 93.508082 
L 108.886066 93.780578 
L 108.991752 95.28498 
L 109.120661 94.995454 
L 109.363248 95.182795 
L 109.663408 95.642631 
L 117.369709 95.194149 
L 117.37426 94.938684 
L 117.455473 96.136529 
L 117.463575 96.715582 
L 118.168388 97.203803 
L 118.28939 98.532219 
L 118.667379 99.36106 
L 118.969148 99.633556 
L 122.142527 99.77548 
L 122.225156 99.599494 
L 132.704068 99.554078 
L 132.73223 99.389445 
L 132.843077 105.628458 
L 136.458012 106.071263 
L 136.526323 108.00144 
L 137.190432 108.325029 
L 137.298643 108.824604 
L 137.629213 109.517197 
L 137.89494 109.98271 
L 138.525643 110.141666 
L 140.078495 111.458728 
L 140.262676 112.049135 
L 141.308491 112.855268 
L 141.33474 113.780617 
L 142.054619 114.371024 
L 142.163218 115.654024 
L 142.493899 116.602082 
L 143.392742 116.948378 
L 143.510886 117.413891 
L 145.915442 117.68071 
L 145.919659 117.936175 
L 145.937972 117.885082 
L 147.831994 117.958883 
L 147.853996 118.923971 
L 149.449357 118.929648 
L 149.467586 119.395161 
L 149.854287 119.315683 
L 149.864858 120.553268 
L 150.519894 121.064197 
L 150.633072 122.262042 
L 151.29596 123.562073 
L 152.172135 123.834568 
L 156.358339 124.317113 
L 156.390747 126.627648 
L 159.089441 127.087484 
L 159.676581 127.411073 
L 159.709849 130.118997 
L 160.418769 130.692373 
L 160.440078 131.884542 
L 160.745038 132.560104 
L 161.325492 133.247019 
L 164.209754 133.60467 
L 164.229926 133.877165 
L 164.962707 133.729564 
L 164.98557 134.263201 
L 165.098914 134.586789 
L 165.216225 135.273705 
L 165.806973 135.495108 
L 167.505134 135.77328 
L 167.508796 135.926559 
L 169.001106 136.164993 
L 169.859717 136.624829 
L 169.864712 137.612626 
L 170.596466 138.100847 
L 173.329733 138.986457 
L 173.348905 139.355462 
L 174.088706 140.093471 
L 174.211678 142.307497 
L 174.215424 142.30182 
L 174.332403 142.767333 
L 174.614666 143.187431 
L 174.942018 143.47128 
L 177.944701 143.652944 
L 177.967148 144.16955 
L 178.659919 144.589648 
L 178.79571 147.649546 
L 178.999451 148.092351 
L 191.683228 148.711143 
L 191.826926 160.666886 
L 193.724861 161.052921 
L 193.742258 162.108842 
L 193.74506 162.000979 
L 194.532418 162.103165 
L 195.934581 162.120196 
L 197.157446 162.404045 
L 197.169904 163.249917 
L 197.87727 163.454289 
L 197.940809 164.362607 
L 198.093414 164.794059 
L 198.739627 165.117647 
L 201.266932 165.469621 
L 201.283524 165.424205 
L 201.287908 165.060877 
L 201.291543 165.066554 
L 202.021438 165.322019 
L 202.129982 166.792359 
L 202.290522 167.059178 
L 202.627419 167.274904 
L 206.055592 167.825572 
L 206.070687 167.632554 
L 206.090442 168.081036 
L 206.09477 167.853957 
L 206.770394 167.910727 
L 206.788152 168.211607 
L 206.977021 168.444364 
L 207.860021 169.90335 
L 210.414462 170.363187 
L 210.434717 170.561881 
L 211.118471 170.8287 
L 211.154652 174.200833 
L 211.547069 174.552806 
L 211.979302 175.90393 
L 213.058552 176.289965 
L 215.28972 176.846311 
L 215.312305 177.521872 
L 215.979827 178.282589 
L 215.994505 179.071691 
L 216.010182 178.430191 
L 216.178519 178.282589 
L 216.601928 179.128461 
L 216.812828 180.082195 
L 217.383876 179.548558 
L 217.664697 180.973483 
L 218.035388 180.581771 
L 218.442511 181.438996 
L 219.443849 181.768262 
L 220.187729 182.761735 
L 220.894512 183.159125 
L 220.918873 183.630315 
L 221.584952 184.498894 
L 222.477137 184.567018 
L 224.845566 184.907638 
L 225.532344 185.287996 
L 225.59752 186.854846 
L 229.05122 187.155726 
L 229.06981 187.309005 
L 229.761638 187.433899 
L 229.765856 187.184111 
L 229.784418 187.5077 
L 229.800705 187.382806 
L 230.178805 187.371452 
L 230.184049 187.626916 
L 230.404799 187.416868 
L 232.033704 187.740456 
L 232.072993 188.274093 
L 233.91918 188.455757 
L 233.923731 188.592005 
L 233.947759 188.580651 
L 234.66134 188.728253 
L 234.765944 190.37458 
L 234.893744 190.675461 
L 235.181556 190.618691 
L 236.329229 191.038788 
L 238.619053 191.390762 
L 238.645578 192.236633 
L 239.650163 192.458036 
L 239.673526 193.315261 
L 239.873438 193.22443 
L 239.87932 193.462863 
L 240.048185 194.058947 
L 240.534218 194.308735 
L 243.983645 194.286027 
L 244.022962 194.405244 
L 244.052151 197.408372 
L 244.73818 198.089611 
L 244.809072 199.24204 
L 246.5357 199.349903 
L 247.339983 199.872186 
L 247.343729 200.195775 
L 258.193416 200.280929 
L 258.330261 209.040527 
L 258.333396 208.932664 
L 262.058595 208.932664 
L 262.087701 207.587217 
L 262.109981 207.672372 
L 262.830721 207.865389 
L 262.843484 208.381996 
L 262.851475 208.251425 
L 263.630371 208.705584 
L 263.639222 208.364965 
L 264.195481 208.234394 
L 264.198699 208.364965 
L 266.809687 208.478505 
L 267.522103 208.870217 
L 267.538667 208.699907 
L 267.546436 209.227867 
L 267.650208 209.750151 
L 268.296282 210.295142 
L 269.183111 210.368943 
L 269.186995 210.635761 
L 269.946163 210.414358 
L 269.950742 210.533575 
L 271.787134 210.630084 
L 271.79088 210.442743 
L 272.470083 210.437066 
L 272.538117 209.313022 
L 272.895934 208.291164 
L 273.289877 207.854036 
L 275.873285 208.359288 
L 276.552239 208.103823 
L 276.561617 207.58154 
L 276.573631 207.649664 
L 277.277029 208.16627 
L 280.392057 208.342257 
L 280.763997 208.620429 
L 280.786361 209.568487 
L 280.789746 209.437916 
L 281.12606 209.267606 
L 281.435098 209.489009 
L 281.701269 209.835305 
L 285.066514 209.823951 
L 285.757537 210.034 
L 285.843967 206.76973 
L 285.959781 206.304217 
L 286.236134 205.798965 
L 287.80766 205.48673 
L 289.600741 205.821673 
L 289.608621 206.326925 
L 290.315182 206.764053 
L 290.322618 207.269305 
L 290.913061 207.757527 
L 291.44679 207.632633 
L 292.183261 207.905128 
L 292.418384 208.075438 
L 294.422503 208.240071 
L 294.443424 208.501212 
L 295.00046 208.52392 
L 295.032257 209.307345 
L 295.343988 209.44927 
L 295.924719 209.188128 
L 296.073745 208.881571 
L 299.072738 208.586367 
L 299.092382 208.069761 
L 299.790675 207.547478 
L 299.814176 205.537823 
L 299.864341 205.560531 
L 300.366634 205.378867 
L 303.467511 205.282359 
L 304.177929 205.509438 
L 304.186669 205.191527 
L 304.258921 205.889797 
L 304.412774 205.969274 
L 304.920033 206.514266 
L 305.159928 206.588067 
L 306.31512 206.65619 
L 306.340869 206.94004 
L 308.581693 207.246597 
L 308.603446 207.592894 
L 309.29766 207.360137 
L 309.301988 207.683726 
L 309.312671 207.371491 
L 309.41228 207.456646 
L 309.898923 206.905978 
L 310.12686 207.013841 
L 313.165197 206.758376 
L 313.170691 206.576713 
L 313.892845 206.35531 
L 313.896591 206.292863 
L 313.904027 206.497235 
L 313.999336 206.332602 
L 314.179132 206.29854 
L 314.567554 206.548328 
L 317.519516 206.678898 
L 318.442333 206.974102 
L 318.500794 208.433089 
L 318.504235 208.63746 
L 318.632284 208.944018 
L 318.646518 208.915633 
L 319.22023 209.012142 
L 319.238625 209.188128 
L 319.479741 208.887248 
L 320.236329 209.27896 
L 320.782821 208.944018 
L 322.589747 209.171097 
L 323.288734 209.477655 
L 323.292174 209.852336 
L 323.295726 209.511717 
L 323.523385 208.944018 
L 323.802097 208.904279 
L 324.553996 208.518243 
L 324.563984 208.677199 
L 325.010395 208.705584 
L 326.28165 208.512566 
L 327.278938 208.546628 
L 328.013495 208.858863 
L 328.017379 208.751 
L 328.036164 209.142712 
L 328.193458 208.830478 
L 329.322429 209.159743 
L 331.470636 208.69423 
L 331.489809 208.961049 
L 332.122897 208.773708 
L 332.126754 208.932664 
L 332.1348 209.148389 
L 332.33105 209.000788 
L 333.704384 208.830478 
L 334.511193 209.017819 
L 335.111652 208.841832 
L 335.116951 208.881571 
L 335.752704 208.785062 
L 336.587092 208.665845 
L 336.59611 208.467151 
L 338.452202 208.22304 
L 339.038039 208.665845 
L 340.871186 208.86454 
L 341.595588 209.193805 
L 341.602718 208.944018 
L 341.712649 209.318699 
L 341.897218 209.381146 
L 342.473455 209.227867 
L 343.001163 209.125681 
L 345.468591 209.120005 
L 345.654464 208.944018 
L 345.677909 209.256252 
L 345.681405 209.233544 
L 346.377367 209.415208 
L 347.103712 209.50604 
L 347.168499 209.67635 
L 347.383367 209.738797 
L 348.192035 209.744474 
L 351.162338 210.164571 
L 351.181511 210.011292 
L 351.770816 210.272434 
L 352.22494 209.909106 
L 352.514668 210.039677 
L 353.630072 210.022646 
L 354.956126 210.141863 
L 354.972829 209.86369 
L 354.97577 210.357589 
L 355.670844 210.283788 
L 355.684689 210.068062 
L 355.770398 210.192956 
L 356.235621 210.153217 
L 359.687934 210.306496 
L 359.712656 210.635761 
L 360.401876 211.078566 
L 360.405538 211.050181 
L 360.408896 211.305646 
L 360.425016 210.817425 
L 360.647043 210.238372 
L 361.134074 209.988584 
L 363.520816 209.670673 
L 363.528613 210.022646 
L 363.532414 209.943168 
L 364.351071 209.852336 
L 364.361614 210.022646 
L 364.877502 210.130509 
L 365.404211 209.960199 
L 365.665721 209.92046 
L 368.104265 209.801243 
L 368.128627 209.653642 
L 368.798229 209.795566 
L 368.805249 209.86369 
L 368.812103 209.636611 
L 368.829389 209.755827 
L 369.554817 210.022646 
L 370.0704 209.892075 
L 370.795024 209.965876 
L 371.939284 209.801243 
L 373.710334 209.73312 
L 373.713192 209.687704 
L 373.7158 209.755827 
L 374.451855 209.636611 
L 374.515284 209.261929 
L 374.655347 209.273283 
L 374.656929 209.148389 
L 375.467816 209.27896 
L 378.588727 209.09162 
L 378.592389 208.926987 
L 378.660173 209.330053 
L 378.906062 209.386823 
L 378.908975 209.256252 
L 379.515233 209.494686 
L 380.824806 209.369792 
L 382.580568 209.823951 
L 382.584674 209.636611 
L 382.950399 209.721766 
L 382.965992 208.983757 
L 383.872105 209.051881 
L 384.065026 209.102974 
L 384.759683 208.961049 
L 385.987515 209.148389 
L 388.094629 208.853186 
L 388.116937 208.518243 
L 388.764121 208.592044 
L 388.781934 207.978929 
L 388.785347 207.99596 
L 389.307617 208.115177 
L 390.802064 207.592894 
L 391.927484 207.69508 
L 392.87738 207.746173 
L 392.894999 207.893774 
L 394.522712 208.075438 
L 395.172587 207.678049 
L 397.78191 207.689403 
L 397.849084 206.378018 
L 398.093252 206.480204 
L 398.095111 206.41208 
L 399.097088 206.571036 
L 399.097088 206.571036 
" style="fill:none;stroke:#808000;stroke-linecap:square;"/>
   </g>
   <g id="patch_3">
    <path d="M 49.75 212.6 
L 49.75 10.8 
" style="fill:none;stroke:#000000;stroke-linecap:square;stroke-linejoin:miter;stroke-width:0.8;"/>
   </g>
   <g id="patch_4">
    <path d="M 398.88 212.6 
L 398.88 10.8 
" style="fill:none;stroke:#000000;stroke-linecap:square;stroke-linejoin:miter;stroke-width:0.8;"/>
   </g>
   <g id="patch_5">
    <path d="M 49.75 212.6 
L 398.88 212.6 
" style="fill:none;stroke:#000000;stroke-linecap:square;stroke-linejoin:miter;stroke-width:0.8;"/>
   </g>
   <g id="patch_6">
    <path d="M 49.75 10.8 
L 398.88 10.8 
" style="fill:none;stroke:#000000;stroke-linecap:square;stroke-linejoin:miter;stroke-width:0.8;"/>
   </g>
   <g id="legend_1">
    <g id="patch_7">
     <path d="M 56.75 48.7125 
L 235.017188 48.7125 
Q 237.017188 48.7125 237.017188 46.7125 
L 237.017188 17.8 
Q 237.017188 15.8 235.017188 15.8 
L 56.75 15.8 
Q 54.75 15.8 54.75 17.8 
L 54.75 46.7125 
Q 54.75 48.7125 56.75 48.7125 
z
" style="fill:#ffffff;opacity:0.8;stroke:#cccccc;stroke-linejoin:miter;"/>
    </g>
    <g id="line2d_31">
     <path d="M 58.75 23.898438 
L 78.75 23.898438 
" style="fill:none;stroke:#808000;stroke-linecap:square;"/>
    </g>
    <g id="line2d_32"/>
    <g id="text_15">
     <!-- /sensor_data/accelZ -->
     <defs>
      <path d="M 25.390625 72.90625 
L 33.6875 72.90625 
L 8.296875 -9.28125 
L 0 -9.28125 
z
" id="DejaVuSans-47"/>
      <path d="M 44.28125 53.078125 
L 44.28125 44.578125 
Q 40.484375 46.53125 36.375 47.5 
Q 32.28125 48.484375 27.875 48.484375 
Q 21.1875 48.484375 17.84375 46.4375 
Q 14.5 44.390625 14.5 40.28125 
Q 14.5 37.15625 16.890625 35.375 
Q 19.28125 33.59375 26.515625 31.984375 
L 29.59375 31.296875 
Q 39.15625 29.25 43.1875 25.515625 
Q 47.21875 21.78125 47.21875 15.09375 
Q 47.21875 7.46875 41.1875 3.015625 
Q 35.15625 -1.421875 24.609375 -1.421875 
Q 20.21875 -1.421875 15.453125 -0.5625 
Q 10.6875 0.296875 5.421875 2 
L 5.421875 11.28125 
Q 10.40625 8.6875 15.234375 7.390625 
Q 20.0625 6.109375 24.8125 6.109375 
Q 31.15625 6.109375 34.5625 8.28125 
Q 37.984375 10.453125 37.984375 14.40625 
Q 37.984375 18.0625 35.515625 20.015625 
Q 33.0625 21.96875 24.703125 23.78125 
L 21.578125 24.515625 
Q 13.234375 26.265625 9.515625 29.90625 
Q 5.8125 33.546875 5.8125 39.890625 
Q 5.8125 47.609375 11.28125 51.796875 
Q 16.75 56 26.8125 56 
Q 31.78125 56 36.171875 55.265625 
Q 40.578125 54.546875 44.28125 53.078125 
z
" id="DejaVuSans-115"/>
      <path d="M 56.203125 29.59375 
L 56.203125 25.203125 
L 14.890625 25.203125 
Q 15.484375 15.921875 20.484375 11.0625 
Q 25.484375 6.203125 34.421875 6.203125 
Q 39.59375 6.203125 44.453125 7.46875 
Q 49.3125 8.734375 54.109375 11.28125 
L 54.109375 2.78125 
Q 49.265625 0.734375 44.1875 -0.34375 
Q 39.109375 -1.421875 33.890625 -1.421875 
Q 20.796875 -1.421875 13.15625 6.1875 
Q 5.515625 13.8125 5.515625 26.8125 
Q 5.515625 40.234375 12.765625 48.109375 
Q 20.015625 56 32.328125 56 
Q 43.359375 56 49.78125 48.890625 
Q 56.203125 41.796875 56.203125 29.59375 
z
M 47.21875 32.234375 
Q 47.125 39.59375 43.09375 43.984375 
Q 39.0625 48.390625 32.421875 48.390625 
Q 24.90625 48.390625 20.390625 44.140625 
Q 15.875 39.890625 15.1875 32.171875 
z
" id="DejaVuSans-101"/>
      <path d="M 54.890625 33.015625 
L 54.890625 0 
L 45.90625 0 
L 45.90625 32.71875 
Q 45.90625 40.484375 42.875 44.328125 
Q 39.84375 48.1875 33.796875 48.1875 
Q 26.515625 48.1875 22.3125 43.546875 
Q 18.109375 38.921875 18.109375 30.90625 
L 18.109375 0 
L 9.078125 0 
L 9.078125 54.6875 
L 18.109375 54.6875 
L 18.109375 46.1875 
Q 21.34375 51.125 25.703125 53.5625 
Q 30.078125 56 35.796875 56 
Q 45.21875 56 50.046875 50.171875 
Q 54.890625 44.34375 54.890625 33.015625 
z
" id="DejaVuSans-110"/>
      <path d="M 30.609375 48.390625 
Q 23.390625 48.390625 19.1875 42.75 
Q 14.984375 37.109375 14.984375 27.296875 
Q 14.984375 17.484375 19.15625 11.84375 
Q 23.34375 6.203125 30.609375 6.203125 
Q 37.796875 6.203125 41.984375 11.859375 
Q 46.1875 17.53125 46.1875 27.296875 
Q 46.1875 37.015625 41.984375 42.703125 
Q 37.796875 48.390625 30.609375 48.390625 
z
M 30.609375 56 
Q 42.328125 56 49.015625 48.375 
Q 55.71875 40.765625 55.71875 27.296875 
Q 55.71875 13.875 49.015625 6.21875 
Q 42.328125 -1.421875 30.609375 -1.421875 
Q 18.84375 -1.421875 12.171875 6.21875 
Q 5.515625 13.875 5.515625 27.296875 
Q 5.515625 40.765625 12.171875 48.375 
Q 18.84375 56 30.609375 56 
z
" id="DejaVuSans-111"/>
      <path d="M 41.109375 46.296875 
Q 39.59375 47.171875 37.8125 47.578125 
Q 36.03125 48 33.890625 48 
Q 26.265625 48 22.1875 43.046875 
Q 18.109375 38.09375 18.109375 28.8125 
L 18.109375 0 
L 9.078125 0 
L 9.078125 54.6875 
L 18.109375 54.6875 
L 18.109375 46.1875 
Q 20.953125 51.171875 25.484375 53.578125 
Q 30.03125 56 36.53125 56 
Q 37.453125 56 38.578125 55.875 
Q 39.703125 55.765625 41.0625 55.515625 
z
" id="DejaVuSans-114"/>
      <path d="M 50.984375 -16.609375 
L 50.984375 -23.578125 
L -0.984375 -23.578125 
L -0.984375 -16.609375 
z
" id="DejaVuSans-95"/>
      <path d="M 45.40625 46.390625 
L 45.40625 75.984375 
L 54.390625 75.984375 
L 54.390625 0 
L 45.40625 0 
L 45.40625 8.203125 
Q 42.578125 3.328125 38.25 0.953125 
Q 33.9375 -1.421875 27.875 -1.421875 
Q 17.96875 -1.421875 11.734375 6.484375 
Q 5.515625 14.40625 5.515625 27.296875 
Q 5.515625 40.1875 11.734375 48.09375 
Q 17.96875 56 27.875 56 
Q 33.9375 56 38.25 53.625 
Q 42.578125 51.265625 45.40625 46.390625 
z
M 14.796875 27.296875 
Q 14.796875 17.390625 18.875 11.75 
Q 22.953125 6.109375 30.078125 6.109375 
Q 37.203125 6.109375 41.296875 11.75 
Q 45.40625 17.390625 45.40625 27.296875 
Q 45.40625 37.203125 41.296875 42.84375 
Q 37.203125 48.484375 30.078125 48.484375 
Q 22.953125 48.484375 18.875 42.84375 
Q 14.796875 37.203125 14.796875 27.296875 
z
" id="DejaVuSans-100"/>
      <path d="M 34.28125 27.484375 
Q 23.390625 27.484375 19.1875 25 
Q 14.984375 22.515625 14.984375 16.5 
Q 14.984375 11.71875 18.140625 8.90625 
Q 21.296875 6.109375 26.703125 6.109375 
Q 34.1875 6.109375 38.703125 11.40625 
Q 43.21875 16.703125 43.21875 25.484375 
L 43.21875 27.484375 
z
M 52.203125 31.203125 
L 52.203125 0 
L 43.21875 0 
L 43.21875 8.296875 
Q 40.140625 3.328125 35.546875 0.953125 
Q 30.953125 -1.421875 24.3125 -1.421875 
Q 15.921875 -1.421875 10.953125 3.296875 
Q 6 8.015625 6 15.921875 
Q 6 25.140625 12.171875 29.828125 
Q 18.359375 34.515625 30.609375 34.515625 
L 43.21875 34.515625 
L 43.21875 35.40625 
Q 43.21875 41.609375 39.140625 45 
Q 35.0625 48.390625 27.6875 48.390625 
Q 23 48.390625 18.546875 47.265625 
Q 14.109375 46.140625 10.015625 43.890625 
L 10.015625 52.203125 
Q 14.9375 54.109375 19.578125 55.046875 
Q 24.21875 56 28.609375 56 
Q 40.484375 56 46.34375 49.84375 
Q 52.203125 43.703125 52.203125 31.203125 
z
" id="DejaVuSans-97"/>
      <path d="M 18.3125 70.21875 
L 18.3125 54.6875 
L 36.8125 54.6875 
L 36.8125 47.703125 
L 18.3125 47.703125 
L 18.3125 18.015625 
Q 18.3125 11.328125 20.140625 9.421875 
Q 21.96875 7.515625 27.59375 7.515625 
L 36.8125 7.515625 
L 36.8125 0 
L 27.59375 0 
Q 17.1875 0 13.234375 3.875 
Q 9.28125 7.765625 9.28125 18.015625 
L 9.28125 47.703125 
L 2.6875 47.703125 
L 2.6875 54.6875 
L 9.28125 54.6875 
L 9.28125 70.21875 
z
" id="DejaVuSans-116"/>
      <path d="M 48.78125 52.59375 
L 48.78125 44.1875 
Q 44.96875 46.296875 41.140625 47.34375 
Q 37.3125 48.390625 33.40625 48.390625 
Q 24.65625 48.390625 19.8125 42.84375 
Q 14.984375 37.3125 14.984375 27.296875 
Q 14.984375 17.28125 19.8125 11.734375 
Q 24.65625 6.203125 33.40625 6.203125 
Q 37.3125 6.203125 41.140625 7.25 
Q 44.96875 8.296875 48.78125 10.40625 
L 48.78125 2.09375 
Q 45.015625 0.34375 40.984375 -0.53125 
Q 36.96875 -1.421875 32.421875 -1.421875 
Q 20.0625 -1.421875 12.78125 6.34375 
Q 5.515625 14.109375 5.515625 27.296875 
Q 5.515625 40.671875 12.859375 48.328125 
Q 20.21875 56 33.015625 56 
Q 37.15625 56 41.109375 55.140625 
Q 45.0625 54.296875 48.78125 52.59375 
z
" id="DejaVuSans-99"/>
      <path d="M 9.421875 75.984375 
L 18.40625 75.984375 
L 18.40625 0 
L 9.421875 0 
z
" id="DejaVuSans-108"/>
      <path d="M 5.609375 72.90625 
L 62.890625 72.90625 
L 62.890625 65.375 
L 16.796875 8.296875 
L 64.015625 8.296875 
L 64.015625 0 
L 4.5 0 
L 4.5 7.515625 
L 50.59375 64.59375 
L 5.609375 64.59375 
z
" id="DejaVuSans-90"/>
     </defs>
     <g transform="translate(86.75 27.398438)scale(0.1 -0.1)">
      <use xlink:href="#DejaVuSans-47"/>
      <use x="33.691406" xlink:href="#DejaVuSans-115"/>
      <use x="85.791016" xlink:href="#DejaVuSans-101"/>
      <use x="147.314453" xlink:href="#DejaVuSans-110"/>
      <use x="210.693359" xlink:href="#DejaVuSans-115"/>
      <use x="262.792969" xlink:href="#DejaVuSans-111"/>
      <use x="323.974609" xlink:href="#DejaVuSans-114"/>
      <use x="365.087891" xlink:href="#DejaVuSans-95"/>
      <use x="415.087891" xlink:href="#DejaVuSans-100"/>
      <use x="478.564453" xlink:href="#DejaVuSans-97"/>
      <use x="539.84375" xlink:href="#DejaVuSans-116"/>
      <use x="579.052734" xlink:href="#DejaVuSans-97"/>
      <use x="640.332031" xlink:href="#DejaVuSans-47"/>
      <use x="674.023438" xlink:href="#DejaVuSans-97"/>
      <use x="735.302734" xlink:href="#DejaVuSans-99"/>
      <use x="790.283203" xlink:href="#DejaVuSans-99"/>
      <use x="845.263672" xlink:href="#DejaVuSans-101"/>
      <use x="906.787109" xlink:href="#DejaVuSans-108"/>
      <use x="934.570312" xlink:href="#DejaVuSans-90"/>
     </g>
    </g>
    <g id="line2d_33">
     <path d="M 58.75 38.854687 
L 78.75 38.854687 
" style="fill:none;stroke:#0000ff;stroke-linecap:square;"/>
    </g>
    <g id="line2d_34"/>
    <g id="text_16">
     <!-- /sensor_data/battery_voltage -->
     <defs>
      <path d="M 48.6875 27.296875 
Q 48.6875 37.203125 44.609375 42.84375 
Q 40.53125 48.484375 33.40625 48.484375 
Q 26.265625 48.484375 22.1875 42.84375 
Q 18.109375 37.203125 18.109375 27.296875 
Q 18.109375 17.390625 22.1875 11.75 
Q 26.265625 6.109375 33.40625 6.109375 
Q 40.53125 6.109375 44.609375 11.75 
Q 48.6875 17.390625 48.6875 27.296875 
z
M 18.109375 46.390625 
Q 20.953125 51.265625 25.265625 53.625 
Q 29.59375 56 35.59375 56 
Q 45.5625 56 51.78125 48.09375 
Q 58.015625 40.1875 58.015625 27.296875 
Q 58.015625 14.40625 51.78125 6.484375 
Q 45.5625 -1.421875 35.59375 -1.421875 
Q 29.59375 -1.421875 25.265625 0.953125 
Q 20.953125 3.328125 18.109375 8.203125 
L 18.109375 0 
L 9.078125 0 
L 9.078125 75.984375 
L 18.109375 75.984375 
z
" id="DejaVuSans-98"/>
      <path d="M 32.171875 -5.078125 
Q 28.375 -14.84375 24.75 -17.8125 
Q 21.140625 -20.796875 15.09375 -20.796875 
L 7.90625 -20.796875 
L 7.90625 -13.28125 
L 13.1875 -13.28125 
Q 16.890625 -13.28125 18.9375 -11.515625 
Q 21 -9.765625 23.484375 -3.21875 
L 25.09375 0.875 
L 2.984375 54.6875 
L 12.5 54.6875 
L 29.59375 11.921875 
L 46.6875 54.6875 
L 56.203125 54.6875 
z
" id="DejaVuSans-121"/>
      <path d="M 2.984375 54.6875 
L 12.5 54.6875 
L 29.59375 8.796875 
L 46.6875 54.6875 
L 56.203125 54.6875 
L 35.6875 0 
L 23.484375 0 
z
" id="DejaVuSans-118"/>
      <path d="M 45.40625 27.984375 
Q 45.40625 37.75 41.375 43.109375 
Q 37.359375 48.484375 30.078125 48.484375 
Q 22.859375 48.484375 18.828125 43.109375 
Q 14.796875 37.75 14.796875 27.984375 
Q 14.796875 18.265625 18.828125 12.890625 
Q 22.859375 7.515625 30.078125 7.515625 
Q 37.359375 7.515625 41.375 12.890625 
Q 45.40625 18.265625 45.40625 27.984375 
z
M 54.390625 6.78125 
Q 54.390625 -7.171875 48.1875 -13.984375 
Q 42 -20.796875 29.203125 -20.796875 
Q 24.46875 -20.796875 20.265625 -20.09375 
Q 16.0625 -19.390625 12.109375 -17.921875 
L 12.109375 -9.1875 
Q 16.0625 -11.328125 19.921875 -12.34375 
Q 23.78125 -13.375 27.78125 -13.375 
Q 36.625 -13.375 41.015625 -8.765625 
Q 45.40625 -4.15625 45.40625 5.171875 
L 45.40625 9.625 
Q 42.625 4.78125 38.28125 2.390625 
Q 33.9375 0 27.875 0 
Q 17.828125 0 11.671875 7.65625 
Q 5.515625 15.328125 5.515625 27.984375 
Q 5.515625 40.671875 11.671875 48.328125 
Q 17.828125 56 27.875 56 
Q 33.9375 56 38.28125 53.609375 
Q 42.625 51.21875 45.40625 46.390625 
L 45.40625 54.6875 
L 54.390625 54.6875 
z
" id="DejaVuSans-103"/>
     </defs>
     <g transform="translate(86.75 42.354687)scale(0.1 -0.1)">
      <use xlink:href="#DejaVuSans-47"/>
      <use x="33.691406" xlink:href="#DejaVuSans-115"/>
      <use x="85.791016" xlink:href="#DejaVuSans-101"/>
      <use x="147.314453" xlink:href="#DejaVuSans-110"/>
      <use x="210.693359" xlink:href="#DejaVuSans-115"/>
      <use x="262.792969" xlink:href="#DejaVuSans-111"/>
      <use x="323.974609" xlink:href="#DejaVuSans-114"/>
      <use x="365.087891" xlink:href="#DejaVuSans-95"/>
      <use x="415.087891" xlink:href="#DejaVuSans-100"/>
      <use x="478.564453" xlink:href="#DejaVuSans-97"/>
      <use x="539.84375" xlink:href="#DejaVuSans-116"/>
      <use x="579.052734" xlink:href="#DejaVuSans-97"/>
      <use x="640.332031" xlink:href="#DejaVuSans-47"/>
      <use x="674.023438" xlink:href="#DejaVuSans-98"/>
      <use x="737.5" xlink:href="#DejaVuSans-97"/>
      <use x="798.779297" xlink:href="#DejaVuSans-116"/>
      <use x="837.988281" xlink:href="#DejaVuSans-116"/>
      <use x="877.197266" xlink:href="#DejaVuSans-101"/>
      <use x="938.720703" xlink:href="#DejaVuSans-114"/>
      <use x="979.833984" xlink:href="#DejaVuSans-121"/>
      <use x="1039.013672" xlink:href="#DejaVuSans-95"/>
      <use x="1089.013672" xlink:href="#DejaVuSans-118"/>
      <use x="1148.193359" xlink:href="#DejaVuSans-111"/>
      <use x="1209.375" xlink:href="#DejaVuSans-108"/>
      <use x="1237.158203" xlink:href="#DejaVuSans-116"/>
      <use x="1276.367188" xlink:href="#DejaVuSans-97"/>
      <use x="1337.646484" xlink:href="#DejaVuSans-103"/>
      <use x="1401.123047" xlink:href="#DejaVuSans-101"/>
     </g>
    </g>
   </g>
  </g>
 </g>
 <defs>
  <clipPath id="p9aed1b9e06">
   <rect height="201.8" width="349.13" x="49.75" y="10.8"/>
  </clipPath>
 </defs>
</svg>
